<svg width="74.9" height="74.9" xmlns="http://www.w3.org/2000/svg" xmlns:svg="http://www.w3.org/2000/svg">
 <title>Letter S in a cercle blue</title>

 <g>
  <title>Layer 1</title>
  <g id="Layer_1">
   <rect fill="none" id="rect4515" y="0" x="7" height="74.9" width="74.9"/>
   <circle fill="#15925E" id="circle4517" r="34.31956" cy="38.45001" cx="37.74226"/>
   <g id="g4519">
    <path fill="white" id="path4521" d="m28.69258,44.81773c0.05923,2.06995 1.24374,6.00288 9.00228,6.00288c4.20504,0 8.88386,-0.87974 8.88386,-4.81266c0,-2.89795 -3.19818,-3.67418 -7.69932,-4.60695l-4.56039,-0.93148c-6.87018,-1.39722 -13.50344,-2.74269 -13.50344,-10.91904c0,-4.13992 2.5467,-11.43653 16.34628,-11.43653c13.02964,0 16.52396,7.45186 16.58317,12.00577l-8.52847,0c-0.23691,-1.65596 -0.94763,-5.58889 -8.70619,-5.58889c-3.37585,0 -7.40321,1.08673 -7.40321,4.45041c0,2.89794 2.72439,3.51894 4.50116,3.88117l10.36449,2.22521c5.80409,1.24198 11.13441,3.31194 11.13441,9.98756c0,11.17779 -13.02964,12.15972 -16.76085,12.15972c-15.51712,0 -18.18228,-7.81409 -18.18228,-12.41976l8.5285,0l0,0.00259z"/>
   </g>
  </g>
 </g>
</svg>
